<?xml version="1.0" standalone="no"?>
<!DOCTYPE svg PUBLIC "-//W3C//DTD SVG 20010904//EN"
 "http://www.w3.org/TR/2001/REC-SVG-20010904/DTD/svg10.dtd">
<svg version="1.0" xmlns="http://www.w3.org/2000/svg"
 width="460.000000pt" height="460.000000pt" viewBox="0 0 460.000000 460.000000"
 preserveAspectRatio="xMidYMid meet">
<metadata>
Created by potrace 1.14, written by Peter Selinger 2001-2017
</metadata>
<g transform="translate(0.000000,460.000000) scale(0.100000,-0.100000)"
fill="#000000" stroke="none">
<path d="M0 2300 l0 -2300 404 0 c345 0 405 2 416 15 7 8 33 25 59 37 67 33
111 84 111 130 0 21 11 62 24 93 21 47 29 55 52 55 34 0 102 38 110 62 3 11
-1 27 -9 36 -14 16 -13 18 8 28 18 9 22 9 18 -1 -6 -18 37 -31 48 -14 6 11 9
10 15 -4 9 -24 27 -21 19 3 -8 25 -8 25 42 0 28 -13 44 -29 51 -50 13 -37 20
-38 20 -5 0 34 11 44 25 25 20 -26 60 -50 84 -50 13 0 23 -4 23 -10 0 -5 7
-10 16 -10 13 0 14 -3 5 -14 -10 -11 -4 -15 29 -18 41 -4 41 -4 18 14 -16 12
-19 18 -8 18 8 0 21 -10 29 -21 11 -18 11 -23 -1 -31 -8 -5 -2 -6 17 -2 16 4
47 7 70 6 22 -1 58 -2 80 -2 33 -1 37 -3 20 -11 -16 -7 -13 -8 13 -4 17 2 32
1 32 -3 0 -4 18 -8 40 -9 22 0 40 3 40 7 0 4 21 10 46 12 41 3 47 1 55 -19 6
-16 17 -23 34 -23 14 0 25 5 25 10 0 6 13 4 30 -5 17 -9 30 -22 30 -30 0 -8 5
-15 10 -15 6 0 10 12 10 28 0 24 4 27 37 30 20 1 40 -3 44 -9 11 -19 40 -3 32
18 -6 15 -4 16 9 5 20 -16 102 3 135 31 12 11 26 16 31 13 6 -3 34 -8 64 -11
29 -3 58 -12 64 -20 9 -12 14 -12 33 2 18 12 25 13 31 3 6 -10 9 -9 13 1 3 8
6 0 6 -17 1 -26 -3 -30 -21 -30 -19 1 -22 -4 -20 -24 2 -14 10 -29 18 -33 9
-5 12 -16 9 -26 -4 -15 -1 -17 19 -14 23 5 24 3 24 -47 1 -55 -17 -86 -42 -77
-8 3 -17 -1 -20 -9 -5 -12 79 -14 614 -14 521 1 620 3 620 15 0 7 3 20 6 29 3
9 1 16 -6 16 -19 0 -40 27 -40 53 0 22 23 52 39 52 3 0 5 3 3 8 -1 4 11 10 28
13 16 4 30 10 30 15 0 11 38 22 50 14 6 -3 -1 -17 -15 -33 -14 -15 -25 -30
-25 -35 0 -4 -4 -5 -10 -2 -6 3 -10 2 -10 -4 0 -5 7 -14 16 -19 12 -7 13 -11
5 -17 -9 -5 -9 -10 -1 -21 7 -7 10 -19 7 -26 -2 -7 0 -21 5 -32 7 -12 7 -16 0
-12 -6 3 -13 2 -17 -4 -4 -7 106 -10 334 -10 l341 0 0 2300 0 2300 -2300 0
-2300 0 0 -2300z m2089 1995 c13 -1 27 -9 32 -16 4 -8 14 -14 21 -15 7 0 23
-2 36 -2 12 -1 22 -9 22 -17 0 -8 5 -15 11 -15 5 0 7 5 3 12 -4 7 -3 8 5 4 16
-11 -2 -32 -35 -40 -27 -7 -24 -26 5 -26 10 0 24 -7 31 -15 7 -8 16 -13 20
-10 5 3 12 0 16 -6 4 -7 25 -9 61 -4 52 6 55 6 86 -29 24 -25 36 -33 47 -26 8
5 11 12 7 16 -4 4 5 13 19 21 33 17 33 17 27 -8 -5 -19 -3 -21 23 -15 43 9 56
-4 50 -52 -4 -35 -1 -44 17 -57 12 -8 32 -15 44 -15 20 0 22 -5 20 -32 -2 -24
-8 -33 -20 -32 -9 1 -17 -4 -17 -12 0 -7 -6 -17 -13 -21 -25 -15 -27 -54 -5
-85 19 -28 19 -30 3 -42 -10 -7 -53 -19 -96 -26 -44 -7 -79 -16 -79 -20 0 -4
-8 -7 -17 -6 -12 1 -19 -7 -21 -23 -2 -15 0 -21 7 -17 6 4 11 0 11 -8 0 -9 -4
-16 -8 -16 -18 0 -60 -98 -67 -155 -3 -33 -12 -78 -18 -99 -9 -31 -8 -41 1
-44 7 -2 12 -10 12 -18 0 -9 -4 -12 -10 -9 -5 3 -10 -3 -10 -15 0 -14 5 -20
18 -18 22 4 25 -49 4 -74 -12 -14 -11 -23 12 -68 14 -28 26 -58 26 -65 0 -25
-43 -39 -122 -40 -51 -1 -84 -7 -100 -17 -14 -9 -35 -18 -49 -20 -13 -1 -25
-10 -27 -18 -3 -20 58 -41 128 -44 30 -1 64 -7 75 -14 11 -6 14 -12 8 -12 -21
0 -15 -18 8 -25 12 -4 24 -2 28 4 7 11 63 15 121 9 14 -2 27 2 29 7 3 6 15 18
28 29 13 10 22 23 20 30 -2 6 -1 18 4 27 9 18 -23 55 -39 45 -6 -3 -12 1 -16
9 -4 10 3 17 22 21 75 15 73 15 70 -3 -1 -10 7 -32 20 -50 12 -17 22 -43 22
-58 0 -24 -3 -27 -25 -23 -13 3 -24 2 -23 -1 3 -15 -15 -41 -28 -41 -8 0 -19
-11 -24 -24 -5 -14 -18 -30 -30 -36 -11 -6 -20 -17 -20 -24 0 -8 -7 -19 -15
-26 -12 -10 -13 -15 -3 -21 9 -6 8 -12 -5 -26 -10 -12 -14 -27 -10 -41 3 -13
2 -22 -3 -21 -21 4 -35 -2 -29 -11 4 -6 -5 -10 -20 -10 -20 0 -26 -4 -21 -15
3 -9 0 -15 -9 -15 -7 0 -16 -4 -20 -9 -9 -15 126 -2 165 16 19 8 49 25 65 37
49 36 100 56 142 56 25 0 33 -3 24 -9 -13 -9 -26 -81 -23 -131 7 -96 9 -118
16 -128 4 -7 3 -12 -2 -12 -19 0 1 -41 29 -61 22 -16 29 -28 29 -55 0 -29 4
-34 23 -34 18 0 19 -2 7 -10 -13 -9 -13 -11 0 -19 12 -8 11 -11 -5 -17 -11 -4
-25 -15 -31 -23 -8 -10 -26 -15 -50 -14 -32 2 -35 0 -19 -8 17 -8 16 -9 -8 -5
-19 2 -36 -3 -51 -18 -58 -54 -23 -101 57 -77 23 7 57 15 75 18 l33 5 -16 -38
c-8 -21 -22 -45 -30 -53 -8 -9 -27 -31 -41 -49 -14 -17 -30 -30 -35 -26 -5 3
-9 1 -9 -4 0 -11 -21 -14 -95 -13 -32 1 -64 6 -69 11 -6 6 -16 5 -28 -1 -10
-5 -23 -7 -28 -4 -5 3 -11 1 -15 -5 -8 -13 -51 -13 -73 -1 -11 6 -34 5 -61 -2
-36 -10 -45 -9 -54 4 -7 9 -25 19 -42 23 -34 8 -131 71 -156 101 -10 11 -14
25 -9 30 11 14 -3 46 -34 74 -32 30 -33 48 -5 78 20 21 21 27 11 78 -8 38 -8
64 -1 82 5 14 7 28 4 31 -3 3 4 11 15 19 26 18 25 27 -5 43 -13 7 -22 16 -20
20 7 12 -26 72 -62 113 -18 20 -33 44 -33 52 0 8 -9 20 -20 27 -17 11 -20 24
-20 86 0 64 -4 81 -33 135 -32 58 -45 94 -53 142 -2 11 -9 48 -15 83 -11 56
-11 66 5 93 11 18 15 37 10 47 -4 9 -6 21 -5 25 1 5 -3 6 -9 2 -5 -3 -10 -1
-10 5 0 6 -5 8 -11 4 -8 -4 -7 -9 2 -15 13 -8 5 -13 -13 -10 -11 1 -10 -6 4
-28 17 -28 3 -54 -24 -45 -45 14 -58 53 -37 113 10 28 39 44 39 21 0 -5 3 -10
8 -10 4 0 5 22 4 50 -3 31 0 50 7 50 17 0 51 74 41 91 -8 12 -13 12 -31 1 -11
-7 -22 -12 -24 -10 -7 8 -8 117 -1 155 5 30 11 40 22 36 8 -3 14 -1 14 5 0 6
-6 13 -12 15 -8 4 -7 6 4 6 9 1 18 -5 21 -11 3 -10 9 -8 24 5 11 9 24 17 29
17 6 0 19 7 30 16 10 8 13 13 7 9 -7 -3 -13 -1 -13 4 0 6 7 11 15 11 16 0 20
12 8 23 -3 4 -17 -3 -31 -15 -13 -13 -22 -17 -20 -9 2 7 -3 16 -9 18 -7 3 -13
-2 -13 -11 0 -10 -7 -15 -20 -13 -28 4 -35 14 -21 31 9 11 10 20 1 36 -9 16
-9 25 0 35 7 8 9 18 6 23 -7 12 29 45 73 67 24 12 30 20 22 28 -17 17 -13 26
9 20 14 -4 27 3 41 21 11 14 27 26 34 26 8 0 19 9 25 20 6 12 7 20 1 20 -5 0
-16 3 -25 6 -11 4 -16 1 -16 -10 0 -10 -9 -16 -25 -16 -13 0 -46 -7 -72 -16
-44 -15 -47 -15 -60 2 -7 10 -10 25 -7 34 4 8 7 26 8 38 1 28 34 57 79 71 18
6 68 24 112 40 44 16 87 27 95 25 8 -3 26 -7 39 -9z m351 -175 c0 -5 -2 -10
-4 -10 -3 0 -8 5 -11 10 -3 6 -1 10 4 10 6 0 11 -4 11 -10z m-878 -452 c-7 -7
-12 -8 -12 -2 0 14 12 26 19 19 2 -3 -1 -11 -7 -17z m48 -26 c0 -7 -4 -10 -10
-7 -5 3 -10 16 -10 28 0 18 2 19 10 7 5 -8 10 -21 10 -28z m920 -23 c0 -11 5
-29 11 -41 10 -18 8 -19 -13 -13 -36 11 -41 21 -27 53 14 33 29 33 29 1z m112
-51 c-7 -7 -12 -8 -12 -2 0 6 3 14 7 17 3 4 9 5 12 2 2 -3 -1 -11 -7 -17z
m-983 -87 c1 -19 -2 -21 -13 -12 -18 15 -31 -16 -15 -36 7 -7 9 -16 6 -19 -9
-9 -35 38 -42 76 -5 30 -2 40 21 65 l28 30 8 -40 c4 -22 7 -51 7 -64z m866 14
c25 -25 50 -43 54 -40 5 2 19 -4 32 -14 13 -10 35 -22 48 -26 19 -6 21 -9 10
-17 -10 -6 -3 -7 21 -4 19 3 29 3 23 0 -16 -7 -16 -29 -1 -54 10 -16 10 -24 0
-40 -6 -11 -12 -28 -12 -39 0 -10 -9 -25 -20 -32 -14 -11 -20 -29 -23 -77 -4
-72 -10 -83 -28 -51 -11 21 -13 22 -18 6 -6 -17 -9 -16 -36 8 -45 39 -53 45
-62 45 -4 0 -2 -5 5 -12 12 -12 17 -48 7 -48 -3 0 -18 12 -33 26 -19 18 -23
28 -14 31 10 4 10 10 -2 28 -14 22 -14 24 8 39 14 8 29 31 36 51 6 19 15 35
20 35 17 0 16 49 -1 71 -23 30 -24 39 -2 39 14 0 14 3 5 12 -10 10 -15 10 -21
-1 -5 -7 -14 -10 -21 -6 -8 5 -8 11 -2 17 7 7 2 22 -14 45 -46 68 -24 72 41 8z
m84 29 c2 -2 -12 -4 -33 -4 -22 0 -35 4 -31 10 5 9 52 4 64 -6z m-1016 -74 c8
-29 0 -24 -19 13 -14 27 -15 30 -2 19 9 -7 18 -22 21 -32z m827 -239 c0 -5 -7
-11 -15 -15 -9 -3 -15 0 -15 9 0 8 7 15 15 15 8 0 15 -4 15 -9z m-563 -603
c-3 -8 -6 -5 -6 6 -1 11 2 17 5 13 3 -3 4 -12 1 -19z m-5 -70 c-2 -10 -9 -18
-14 -18 -6 0 -7 7 -4 16 3 9 6 25 7 37 0 21 1 21 8 2 4 -11 6 -28 3 -37z m654
-680 c5 -8 2 -9 -10 -5 -14 6 -17 3 -12 -9 4 -11 2 -15 -8 -11 -16 6 -32 -26
-21 -43 3 -5 0 -8 -7 -5 -7 3 -24 -5 -38 -18 -37 -34 -79 -33 -118 4 -32 30
-35 49 -7 49 9 0 12 -6 9 -15 -4 -8 -1 -15 5 -15 6 0 14 0 19 0 4 0 7 11 7 24
1 35 14 44 31 21 14 -19 14 -19 29 2 14 19 32 25 97 31 9 1 20 -3 24 -10z
m1174 -978 c0 -5 -5 -10 -11 -10 -5 0 -7 5 -4 10 3 6 8 10 11 10 2 0 4 -4 4
-10z m-50 -10 c0 -5 10 -10 23 -10 18 0 19 -2 7 -10 -11 -7 -11 -10 -2 -10 7
0 10 -5 7 -10 -11 -18 27 -24 40 -7 7 10 15 17 18 17 11 0 -6 -34 -41 -79 -41
-55 -32 -69 33 -46 27 9 54 14 61 11 18 -7 5 -46 -15 -46 -18 0 -41 -18 -41
-32 0 -14 24 -8 49 11 34 26 52 7 46 -49 -3 -35 -2 -40 11 -29 11 9 14 8 14
-10 0 -12 6 -21 15 -21 8 0 15 6 15 14 0 10 7 12 22 8 l22 -5 -22 -8 c-20 -8
-29 -38 -23 -85 1 -7 -5 -14 -14 -18 -8 -3 -15 -1 -15 4 0 6 -4 10 -10 10 -5
0 -10 -7 -10 -15 0 -8 5 -15 10 -15 15 0 12 -19 -5 -36 -8 -8 -12 -22 -9 -32
5 -14 4 -14 -4 -2 -6 8 -8 18 -5 24 8 11 -12 1 -55 -31 -25 -19 -46 -25 -92
-26 -33 -1 -60 -5 -60 -9 0 -5 -8 -8 -17 -8 -9 0 -31 -16 -49 -35 -35 -39 -62
-48 -44 -16 13 25 13 34 0 26 -5 -3 -10 3 -10 14 0 10 5 21 11 23 6 2 12 16
12 31 0 15 4 30 10 34 6 4 8 -4 5 -21 -4 -20 -1 -26 12 -26 22 0 32 34 16 54
-14 19 -45 15 -62 -9 -21 -29 -44 -11 -44 35 0 22 5 40 10 40 6 0 10 16 10 36
0 28 -3 35 -15 31 -8 -4 -17 -3 -19 2 -8 12 13 81 24 81 6 0 10 5 10 10 0 6
-9 10 -19 10 -12 0 -21 9 -25 26 -7 28 7 52 78 130 25 27 46 52 46 57 0 4 15
7 33 8 30 1 31 1 7 9 -22 7 -21 8 13 9 20 1 37 -3 37 -9z m80 -10 c0 -5 -7
-10 -15 -10 -8 0 -15 5 -15 10 0 6 7 10 15 10 8 0 15 -4 15 -10z m-260 -10 c0
-5 -5 -10 -11 -10 -5 0 -7 5 -4 10 3 6 8 10 11 10 2 0 4 -4 4 -10z m250 -116
c0 -8 -4 -12 -10 -9 -5 3 -10 10 -10 16 0 5 5 9 10 9 6 0 10 -7 10 -16z
m-3154 -90 c-3 -7 0 -14 6 -16 6 -2 3 -9 -6 -17 -14 -12 -16 -8 -15 40 0 45 2
50 10 30 5 -14 8 -30 5 -37z m-64 2 c8 5 9 1 5 -10 -4 -10 -8 -25 -8 -34 -2
-22 -17 37 -16 63 0 16 1 16 4 -3 3 -13 9 -19 15 -16z m107 -16 c-2 -27 -6
-50 -11 -50 -4 0 -8 23 -8 50 0 28 5 50 10 50 7 0 10 -20 9 -50z m76 -78 c3
-13 10 -20 15 -17 5 3 11 1 14 -4 3 -5 0 -11 -7 -14 -15 -6 -16 -52 -1 -52 10
0 21 43 24 100 2 36 3 33 16 -30 7 -38 10 -72 6 -76 -16 -15 -72 -21 -77 -7
-6 17 -9 112 -5 163 l3 40 4 -40 c2 -22 6 -50 8 -63z m-128 -24 c-2 -13 -4 -3
-4 22 0 25 2 35 4 23 2 -13 2 -33 0 -45z m-50 20 c-3 -7 -5 -2 -5 12 0 14 2
19 5 13 2 -7 2 -19 0 -25z m2407 -44 c3 -8 2 -12 -4 -9 -6 3 -10 10 -10 16 0
14 7 11 14 -7z m1036 -106 c0 -6 -9 -8 -20 -5 -11 3 -20 0 -20 -6 0 -6 -3 -7
-6 -4 -4 4 -1 13 5 21 13 16 41 11 41 -6z m-63 -43 c-8 -8 -25 -30 -37 -50
-23 -37 -40 -45 -40 -19 0 21 19 54 31 54 6 0 17 7 25 15 9 8 20 15 25 15 6 0
4 -7 -4 -15z m-1136 -32 c-12 -20 -14 -14 -5 12 4 9 9 14 11 11 3 -2 0 -13 -6
-23z m-322 8 c9 -6 10 -11 2 -15 -6 -4 -11 -3 -11 3 0 5 -8 12 -17 14 -13 3
-14 5 -3 6 8 0 21 -3 29 -8z m342 -22 c-5 -13 -10 -19 -10 -12 -1 15 10 45 15
40 3 -2 0 -15 -5 -28z m716 -41 c-3 -7 -5 -2 -5 12 0 14 2 19 5 13 2 -7 2 -19
0 -25z m428 22 c3 -5 1 -10 -4 -10 -6 0 -11 5 -11 10 0 6 2 10 4 10 3 0 8 -4
11 -10z m101 -48 c-12 -11 -18 7 -10 30 l8 23 4 -23 c2 -13 1 -26 -2 -30z
m-1066 4 c0 -8 -4 -17 -9 -20 -10 -7 -23 19 -14 28 11 11 23 6 23 -8z m934 7
c4 -5 13 -8 19 -8 7 0 10 -9 9 -20 -6 -30 -10 -30 -31 -4 -16 19 -20 21 -21 7
0 -9 -9 -20 -20 -23 -19 -6 -25 -17 -21 -39 1 -5 -1 -16 -4 -25 -5 -13 -7 -14
-15 -1 -16 25 -12 37 28 78 40 43 45 46 56 35z m-1194 -38 c0 -9 -6 -12 -16
-8 -13 5 -13 7 -2 14 17 11 18 11 18 -6z m330 -20 c0 -14 -2 -25 -4 -25 -2 0
-6 11 -8 25 -3 14 -1 25 3 25 5 0 9 -11 9 -25z m-80 5 c0 -5 -5 -10 -11 -10
-5 0 -7 5 -4 10 3 6 8 10 11 10 2 0 4 -4 4 -10z m30 -39 c0 -23 -16 -36 -25
-21 -9 14 1 40 15 40 5 0 10 -9 10 -19z m-145 -70 c3 -5 1 -12 -5 -16 -5 -3
-10 1 -10 9 0 18 6 21 15 7z"/>
<path d="M1920 3840 c0 -5 5 -10 10 -10 6 0 10 5 10 10 0 6 -4 10 -10 10 -5 0
-10 -4 -10 -10z"/>
<path d="M1898 3733 c-11 -3 -15 -10 -12 -21 5 -14 4 -15 -5 -2 -9 13 -14 12
-37 -6 -54 -40 -33 -57 44 -34 24 6 49 5 85 -4 49 -13 50 -13 21 -21 -16 -4
-44 -8 -62 -10 -40 -2 -57 -18 -57 -50 -1 -20 4 -25 22 -25 13 0 26 0 31 0 4
0 7 6 7 13 0 12 24 36 36 37 4 0 9 -9 12 -19 5 -22 63 -61 90 -61 9 0 17 -4
17 -10 0 -5 -5 -10 -12 -10 -6 0 -8 -3 -5 -7 4 -3 2 -12 -4 -19 -8 -10 -7 -17
4 -29 17 -17 31 -20 22 -5 -3 6 1 10 9 10 8 0 18 -4 21 -10 19 -30 97 6 88 40
-3 11 -9 20 -14 20 -4 0 -20 5 -35 10 -21 8 -24 14 -16 22 30 30 -1 37 -48 13
-31 -16 -41 -6 -15 15 8 7 15 21 15 31 0 20 15 25 25 9 10 -17 26 0 20 20 -5
15 0 19 26 22 43 4 46 20 9 42 -24 14 -50 17 -123 16 -128 -3 -145 -1 -129 9
11 7 11 9 0 13 -7 2 -21 3 -30 1z"/>
<path d="M2173 3288 c-9 -15 -33 -79 -33 -90 0 -5 5 -8 10 -8 6 0 10 9 10 21
0 11 14 32 30 46 30 25 32 43 5 43 -8 0 -17 -6 -22 -12z"/>
<path d="M2200 3205 c-11 -13 -9 -15 15 -15 16 0 25 5 23 12 -7 19 -24 20 -38
3z"/>
<path d="M2580 2670 c-10 -6 -12 -12 -4 -20 7 -7 16 -5 29 10 14 15 15 20 4
20 -8 0 -21 -5 -29 -10z"/>
<path d="M2235 2640 c-3 -5 -1 -10 4 -10 6 0 11 5 11 10 0 6 -2 10 -4 10 -3 0
-8 -4 -11 -10z"/>
<path d="M2198 2623 c7 -3 16 -2 19 1 4 3 -2 6 -13 5 -11 0 -14 -3 -6 -6z"/>
<path d="M2576 3395 c4 -8 10 -12 15 -9 11 6 2 24 -11 24 -5 0 -7 -7 -4 -15z"/>
<path d="M2668 3243 c7 -3 16 -2 19 1 4 3 -2 6 -13 5 -11 0 -14 -3 -6 -6z"/>
<path d="M3454 696 c-3 -9 -10 -13 -15 -10 -5 3 -9 -2 -9 -10 0 -23 28 -19 35
5 8 25 -2 39 -11 15z"/>
<path d="M3506 541 c-4 -7 -5 -15 -2 -18 9 -9 19 4 14 18 -4 11 -6 11 -12 0z"/>
<path d="M1413 365 c-14 -15 -3 -28 39 -44 18 -7 29 -6 37 2 19 19 12 29 -18
25 -21 -3 -32 1 -38 13 -7 14 -10 15 -20 4z"/>
<path d="M1840 221 c0 -5 7 -12 16 -15 22 -9 24 -8 24 9 0 8 -9 15 -20 15 -11
0 -20 -4 -20 -9z"/>
<path d="M2340 119 c0 -5 5 -7 10 -4 6 3 10 8 10 11 0 2 -4 4 -10 4 -5 0 -10
-5 -10 -11z"/>
<path d="M2300 105 c0 -8 4 -15 9 -15 5 0 11 7 15 15 3 9 0 15 -9 15 -8 0 -15
-7 -15 -15z"/>
<path d="M2177 87 c-28 -26 -32 -27 -114 -40 l-63 -9 24 -19 c32 -25 56 -24
56 1 0 17 7 20 39 20 31 0 41 -4 46 -20 8 -25 25 -26 32 -1 2 10 19 24 36 32
39 18 45 35 15 45 -40 13 -47 13 -71 -9z"/>
<path d="M2320 50 c0 -5 5 -10 10 -10 6 0 10 5 10 10 0 6 -4 10 -10 10 -5 0
-10 -4 -10 -10z"/>
<path d="M3905 30 c3 -5 8 -10 11 -10 2 0 4 5 4 10 0 6 -5 10 -11 10 -5 0 -7
-4 -4 -10z"/>
<path d="M1895 10 c-23 -6 -15 -8 38 -9 37 0 67 2 67 7 0 10 -68 11 -105 2z"/>
</g>
</svg>
